# xmcd
# 
# Track frame offsets:
#     150
#     6147
#     30812
#     47951
#     63049
#     83590
#     107927
#     128922
#     149864
#     171323
#     193559
# 
# Disc length: 2907
# 
# Revision: 18
# Processed by: cddbd v1.5.2PL0 Copyright (c) Steve Scherf et al.
# Submitted via: fre:ac v1.0.31
# 
DISCID=910b590b
DTITLE=Joe Bonamassa - Different Shades Of Blue
DYEAR=2014
DGENRE=Blues
TTITLE0=Hey Baby (New Rising Sun)
TTITLE1=Oh Beautiful!
TTITLE2=Love Ain't A Love Song
TTITLE3=Living On The Moon
TTITLE4=Heartache Follows Wherever I Go
TTITLE5=Never Give All Your Heart
TTITLE6=I Gave Up Everything For You, 'Cept The Blues
TTITLE7=Different Shades Of Blue
TTITLE8=Get Back My Tomorrow
TTITLE9=Trouble Town
TTITLE10=So, What Would I Do
EXTD=
EXTT0=
EXTT1=
EXTT2=
EXTT3=
EXTT4=
EXTT5=
EXTT6=
EXTT7=
EXTT8=
EXTT9=
EXTT10=
PLAYORDER=
